<svg xmlns="http://www.w3.org/2000/svg" width="15.67" height="27.473" viewBox="0 0 15.67 27.473">
  <path id="fb" d="M1549.34,55.423l-3.759-.006c-4.223,0-6.951,2.653-6.951,6.761V65.3h-3.779a.576.576,0,0,0-.591.56v4.517a.576.576,0,0,0,.591.56h3.779v11.4a.576.576,0,0,0,.591.56h4.931a.576.576,0,0,0,.591-.56v-11.4h4.418a.575.575,0,0,0,.591-.56l0-4.517a.547.547,0,0,0-.173-.4.607.607,0,0,0-.418-.164h-4.42V62.653c0-1.27.319-1.915,2.064-1.915h2.532a.575.575,0,0,0,.59-.56V55.983A.576.576,0,0,0,1549.34,55.423Z" transform="translate(-1534.26 -55.417)" fill="#fff"/>
</svg>
