<svg xmlns="http://www.w3.org/2000/svg" width="28.906" height="29.434" viewBox="0 0 28.906 29.434">
  <path id="insta" d="M1668.416,83.529a8.06,8.06,0,0,1-7.977-8.122V62.217a8.06,8.06,0,0,1,7.977-8.123h12.953a8.06,8.06,0,0,1,7.977,8.123V75.407a8.06,8.06,0,0,1-7.977,8.122ZM1663,62.217V75.407a5.469,5.469,0,0,0,5.412,5.511h12.953a5.469,5.469,0,0,0,5.413-5.511h0V62.217a5.469,5.469,0,0,0-5.412-5.512h-12.953A5.469,5.469,0,0,0,1663,62.217Zm4.44,6.6a7.45,7.45,0,1,1,7.448,7.584A7.526,7.526,0,0,1,1667.443,68.812Zm2.565,0a4.884,4.884,0,1,0,4.883-4.973A4.934,4.934,0,0,0,1670.009,68.812Zm11.316-6.53a1.938,1.938,0,0,1,0-2.708,1.856,1.856,0,0,1,2.659,0,1.939,1.939,0,0,1,0,2.708,1.854,1.854,0,0,1-2.659,0Z" transform="translate(-1660.439 -54.095)" fill="#fff"/>
</svg>
