<svg xmlns="http://www.w3.org/2000/svg" width="27.846" height="26.595" viewBox="0 0 27.846 26.595">
  <path id="search_" data-name="search " d="M1864.243,76.8l-8.385-8.008a9.626,9.626,0,0,0,1.935-5.771,10.453,10.453,0,1,0-10.442,9.973,10.721,10.721,0,0,0,6.042-1.847l8.386,8.009a1.8,1.8,0,0,0,2.465,0A1.613,1.613,0,0,0,1864.243,76.8Zm-11.222-9.936-.684.919-.963.656a7.138,7.138,0,0,1-4.024,1.23,6.656,6.656,0,1,1,6.961-6.649A6.388,6.388,0,0,1,1853.021,66.863Z" transform="translate(-1836.908 -53.049)" fill="#fff"/>
</svg>
